# xmcd
#
# Track frame offsets:
#	150
#	12045
#	29452
#	42672
#	58400
#	73047
#	85002
#	100840
#	119575
#	133322
#
# Disc length: 1953 seconds
#
# Revision: 2
# Processed by: cddbd v1.5.1PL2 Copyright (c) Steve Scherf et al.
# Submitted via: dBpowerAMP V4.0
#
DISCID=90079f0a
DTITLE=Tanya Tucker - Greatest Hits 1990-1992
DYEAR=1993
DGENRE=country
TTITLE0=It's A Little Too Late
TTITLE1=Some Kind Of Trouble
TTITLE2=(Without You) WHat Do I Do With Me
TTITLE3=Down To My Last Teardrop
TTITLE4=Don't Go Out
TTITLE5=Walking Shoes
TTITLE6=Oh What It Did To Me
TTITLE7=Two Sparrows In A Hurricane
TTITLE8=If Your Heart Ain't Busy Tonight
TTITLE9=It Won't Be Me
EXTD=
EXTT0=
EXTT1=
EXTT2=
EXTT3=
EXTT4=
EXTT5=
EXTT6=
EXTT7=
EXTT8=
EXTT9=
PLAYORDER=
